<?xml version="1.0" standalone="no"?><!DOCTYPE svg PUBLIC "-//W3C//DTD SVG 1.1//EN" "http://www.w3.org/Graphics/SVG/1.1/DTD/svg11.dtd"><svg width="200" height="200" viewBox="0 0 200 200" version="1.1" xmlns="http://www.w3.org/2000/svg" xmlns:xlink="http://www.w3.org/1999/xlink"><defs><style type="text/css"><![CDATA[
@font-face { font-family: ifont; src: url("http://at.alicdn.com/t/font_1442373896_4754455.eot?#iefix") format("embedded-opentype"), url("http://at.alicdn.com/t/font_1442373896_4754455.woff") format("woff"), url("http://at.alicdn.com/t/font_1442373896_4754455.ttf") format("truetype"), url("http://at.alicdn.com/t/font_1442373896_4754455.svg#ifont") format("svg"); }

]]></style></defs><g class="transform-group"><g transform="scale(0.1953125, 0.1953125)"><path d="M872.969051 435.54004c4.32097-8.641939 4.32097-21.606141 0-30.249374l-30.249374-30.249374c-4.32097-4.32097-8.641939-4.32097-17.285172-4.32097-4.32097 0-12.964202 0-17.285172 4.32097l-233.347879 229.029495 0 17.285172 0 43.213576 69.140687 0L872.969051 435.54004zM315.522586 275.651232l432.129293 0 0 43.213576-432.129293 0 0-43.213576ZM315.522586 405.290667 717.402505 405.290667 747.651879 375.041293 747.651879 362.078384 315.522586 362.078384ZM315.522586 621.354667l216.064 0 0 43.213576-216.064 0 0-43.213576ZM315.522586 491.716525 630.976646 491.716525 674.190222 448.504242 315.522586 448.504242ZM834.076444 534.928808l0 172.851717c0 47.534545-38.891313 86.425859-86.425859 86.425859L315.522586 794.206384c-47.534545 0-86.425859-38.891313-86.425859-86.425859L229.096727 275.651232c0-47.534545 38.891313-86.425859 86.425859-86.425859l432.129293 0c47.534545 0 86.425859 38.891313 86.425859 86.425859l0 51.855515c12.964202 0 25.928404 8.641939 38.891313 17.285172l4.32097 4.32097L877.29002 275.652525c0-73.461657-56.176485-129.639434-129.638141-129.639434L315.522586 146.013091c-73.461657 0-129.639434 56.176485-129.639434 129.639434l0 432.129293c0 73.461657 56.176485 129.639434 129.639434 129.639434l432.129293 0c73.461657 0 129.639434-56.176485 129.639434-129.639434L877.291313 491.716525 834.076444 534.928808zM315.522586 578.142384 544.550788 578.142384 548.871758 573.821414 587.764364 534.928808 315.522586 534.928808Z" fill="#272636"></path></g></g></svg>